HIERARCHY
ROOT Hips
{
	OFFSET 0.000000 0.000000 0.000000
	CHANNELS 6 Xposition Yposition Zposition Zrotation Yrotation Xrotation 
	JOINT LHipJoint
	{
		OFFSET 0.000000 0.000000 0.000000
		CHANNELS 3 Zrotation Yrotation Xrotation
		JOINT LeftUpLeg
		{
			OFFSET 8.178360 -10.767780 5.035740
			CHANNELS 3 Zrotation Yrotation Xrotation
			JOINT LeftLeg
			{
				OFFSET 14.688660 -40.356780 0.000000
				CHANNELS 3 Zrotation Yrotation Xrotation
				JOINT LeftFoot
				{
					OFFSET 15.373200 -42.237540 0.000000
					CHANNELS 3 Zrotation Yrotation Xrotation
					JOINT LeftToeBase
					{
						OFFSET 0.945840 -2.598660 13.935300
						CHANNELS 3 Zrotation Yrotation Xrotation
						End Site
						{
							OFFSET 0.000000 0.000000 0.000000
						}
					}
				}
			}
		}
	}
	JOINT RHipJoint
	{
		OFFSET 0.000000 0.000000 0.000000
		CHANNELS 3 Zrotation Yrotation Xrotation
		JOINT RightUpLeg
		{
			OFFSET -7.833120 -10.767780 5.035740
			CHANNELS 3 Zrotation Yrotation Xrotation
			JOINT RightLeg
			{
				OFFSET -15.255180 -41.913300 0.000000
				CHANNELS 3 Zrotation Yrotation Xrotation
				JOINT RightFoot
				{
					OFFSET -15.409560 -42.337380 0.000000
					CHANNELS 3 Zrotation Yrotation Xrotation
					JOINT RightToeBase
					{
						OFFSET -0.988380 -2.715540 14.178900
						CHANNELS 3 Zrotation Yrotation Xrotation
						End Site
						{
							OFFSET 0.000000 0.000000 0.000000
						}
					}
				}
			}
		}
	}
	JOINT LowerBack
	{
		OFFSET 0.000000 0.000000 0.000000
		CHANNELS 3 Zrotation Yrotation Xrotation
		JOINT Spine
		{
			OFFSET 0.169620 12.213540 -1.160280
			CHANNELS 3 Zrotation Yrotation Xrotation
			JOINT Spine1
			{
				OFFSET 0.340320 12.293100 -0.256500
				CHANNELS 3 Zrotation Yrotation Xrotation
				JOINT Neck
				{
					OFFSET 0.000000 0.000000 0.000000
					CHANNELS 3 Zrotation Yrotation Xrotation
					JOINT Neck1
					{
						OFFSET -0.325020 10.477440 1.032120
						CHANNELS 3 Zrotation Yrotation Xrotation
						JOINT Head
						{
							OFFSET 0.624420 10.568160 -0.743820
							CHANNELS 3 Zrotation Yrotation Xrotation
							End Site
							{
								OFFSET 0.000000 0.000000 0.000000
							}
						}
					}
				}
				JOINT LeftShoulder
				{
					OFFSET 0.000000 0.000000 0.000000
					CHANNELS 3 Zrotation Yrotation Xrotation
					JOINT LeftArm
					{
						OFFSET 20.174460 7.205340 -1.867260
						CHANNELS 3 Zrotation Yrotation Xrotation
						JOINT LeftForeArm
						{
							OFFSET 29.898000 -0.000000 -0.000000
							CHANNELS 3 Zrotation Yrotation Xrotation
							JOINT LeftHand
							{
								OFFSET 20.901360 -0.000000 -0.000000
								CHANNELS 3 Zrotation Yrotation Xrotation
								JOINT LeftFingerBase
								{
									OFFSET 0.000000 0.000000 0.000000
									CHANNELS 3 Zrotation Yrotation Xrotation
									JOINT LeftHandIndex1
									{
										OFFSET 4.291560 -0.000000 -0.000000
										CHANNELS 3 Zrotation Yrotation Xrotation
										End Site
										{
											OFFSET 0.000000 0.000000 0.000000
										}
									}
								}
								JOINT LThumb
								{
									OFFSET 0.000000 0.000000 0.000000
									CHANNELS 3 Zrotation Yrotation Xrotation
									End Site
									{
										OFFSET 0.000000 0.000000 0.000000
									}
								}
							}
						}
					}
				}
				JOINT RightShoulder
				{
					OFFSET 0.000000 0.000000 0.000000
					CHANNELS 3 Zrotation Yrotation Xrotation
					JOINT RightArm
					{
						OFFSET -18.819600 8.244300 -2.427900
						CHANNELS 3 Zrotation Yrotation Xrotation
						JOINT RightForeArm
						{
							OFFSET -31.451400 -0.000000 -0.000000
							CHANNELS 3 Zrotation Yrotation Xrotation
							JOINT RightHand
							{
								OFFSET -20.665020 -0.000000 -0.000000
								CHANNELS 3 Zrotation Yrotation Xrotation
								JOINT RightFingerBase
								{
									OFFSET 0.000000 0.000000 0.000000
									CHANNELS 3 Zrotation Yrotation Xrotation
									JOINT RightHandIndex1
									{
										OFFSET -3.735180 -0.000000 -0.000000
										CHANNELS 3 Zrotation Yrotation Xrotation
										End Site
										{
											OFFSET 0.000000 0.000000 0.000000
										}
									}
								}
								JOINT RThumb
								{
									OFFSET 0.000000 0.000000 0.000000
									CHANNELS 3 Zrotation Yrotation Xrotation
									End Site
									{
										OFFSET 0.000000 0.000000 0.000000
									}
								}
							}
						}
					}
				}
			}
		}
	}
}
MOTION
Frames:	8
Frame Time:	0.0333333
-76.962120 106.935894 -97.516758 -176.629299 88.031135 -177.085935 -3.832040 0.696176 1.906428 -10.698345 -5.505486 -15.432926 2.627880 11.827080 35.416454 2.782960 -14.974963 -6.179805 2.425000 -9.700200 -28.011400 1.752652 -0.932466 1.398940 16.067258 5.467372 -7.914878 -2.061525 -10.135008 30.408175 0.880154 -5.742873 -6.785097 -0.005200 -0.463600 1.273900 -0.533106 0.874223 10.369974 1.277253 1.259802 0.458296 0.386173 0.584149 -5.078180 -12.768664 -9.878329 -12.177477 8.164215 -11.552181 19.509836 4.619000 -5.366200 14.828600 -6.373337 -0.558752 -1.809253 -81.343390 6.780457 17.586598 18.443728 -26.434644 -5.459180 -1.068057 -2.779972 1.492494 17.715606 22.903727 8.366900 -7.125000 0.000000 0.000000 -12.088100 56.507800 -3.445600 5.073608 1.882442 -0.990730 80.719092 -3.076441 9.727535 -16.879987 25.170038 -4.201854 0.410204 -0.087619 7.241938 -14.563742 6.564619 -1.758700 7.125000 0.000000 0.000000 8.653500 -23.178800 4.599900 
-76.605630 106.424196 -96.134448 -173.577238 88.079935 -174.303169 -3.993526 0.554874 1.997712 -13.782978 -2.881370 -15.888491 2.719056 11.747707 35.457412 2.566014 -23.303165 -2.521681 1.087700 -6.628200 -18.618500 1.711104 -0.878094 1.329369 16.994415 4.991064 -8.177787 -2.313184 -10.494798 31.650748 0.689873 -5.135476 -7.457272 -0.008400 -0.591400 1.625200 0.048148 0.810994 10.143138 1.313176 1.264238 0.557101 0.095690 0.581599 -4.769083 -12.819190 -9.644168 -11.976479 8.298745 -11.230792 19.444934 4.755800 -5.233000 14.689300 -6.398521 -0.520668 -1.805510 -81.800371 6.918794 17.121838 18.262382 -26.187553 -5.357676 -1.020026 -2.655796 3.186624 16.536003 21.731048 7.400800 -7.125000 0.000000 0.000000 -12.817200 54.989600 -3.183000 5.086487 1.851882 -0.976707 80.361302 -3.182632 8.547374 -16.720651 24.980117 -4.124001 0.434452 -0.076768 6.316629 -14.892158 6.421358 -1.760900 7.125000 0.000000 0.000000 8.402800 -23.321300 4.436000 
-76.210944 106.242918 -94.777596 -171.035849 87.556817 -171.604051 -4.210698 0.473363 2.053948 -15.850514 -2.319260 -15.555348 2.542704 11.476613 34.648354 2.483098 -24.307090 -2.775621 1.489900 -7.711100 -21.839800 1.679676 -0.858665 1.311432 17.788712 3.986655 -8.764398 -2.455498 -10.677583 32.307038 0.191125 -3.285911 -7.697036 -0.084700 -1.877400 5.167000 0.206468 0.671919 9.529348 1.467743 1.097547 0.507761 0.364005 0.490862 -4.562636 -12.874958 -9.801366 -11.787027 7.939411 -11.431304 19.624145 4.563300 -5.366500 14.716700 -6.386171 -0.505756 -1.808708 -82.026095 7.267540 17.831424 18.109085 -26.011153 -5.288967 -0.949651 -2.643037 3.722809 15.534661 21.552516 6.864900 -7.125000 0.000000 0.000000 -13.842100 54.596600 -3.311100 5.095571 1.783763 -0.996999 79.637277 -3.874511 8.936198 -16.868266 25.199103 -4.197417 0.450676 -0.040850 5.326478 -15.032075 5.934647 -1.637000 7.125000 0.000000 0.000000 8.313400 -23.846400 4.286200 
-75.813834 105.970092 -93.233406 -169.810505 86.918073 -170.444252 -4.373427 0.506437 2.171403 -16.585232 -2.941594 -14.226468 2.047713 10.900245 32.930052 2.327945 -21.979263 -0.928688 0.023500 -0.989300 -2.719400 1.642394 -0.860299 1.270117 18.900642 3.019970 -9.292692 -2.667887 -10.981690 33.319246 0.168953 -3.303468 -8.248768 -0.049100 -1.429900 3.932400 -0.473755 0.591161 9.284749 1.612472 0.910562 0.479038 1.098181 0.385524 -4.547587 -12.775463 -9.824510 -11.357964 8.347257 -11.576342 19.689472 4.703600 -5.365000 14.668700 -6.366021 -0.485832 -1.806928 -82.112803 7.420067 18.535147 18.005061 -25.898279 -5.238217 -0.966729 -2.676983 3.669053 15.660778 21.949668 7.042100 -7.125000 0.000000 0.000000 -13.906900 55.047900 -3.481100 5.124878 1.765162 -1.001395 79.350012 -4.402936 8.822723 -16.906050 25.266109 -4.220702 0.430884 -0.065862 5.948842 -14.728726 6.501146 -1.760000 7.125000 0.000000 0.000000 8.523200 -23.253200 4.514400 
-75.519786 106.066488 -91.614648 -177.479675 86.320499 -177.959244 -4.504865 0.680580 2.274940 -16.385729 -5.067873 -12.484618 1.615753 10.419135 31.317379 2.383469 -17.918497 -1.894558 0.006000 0.500400 1.375000 1.637788 -0.818086 1.225721 19.455959 2.627352 -9.754975 -2.854499 -11.234143 34.191463 0.193189 -3.516362 -8.875208 -0.044800 -1.365600 3.755500 -2.080816 0.423544 9.155574 1.641560 0.473916 0.407472 2.151477 0.182998 -4.599706 -12.602892 -10.078805 -11.680062 8.412791 -11.990699 20.161273 4.612600 -5.474100 15.040800 -6.355216 -0.485900 -1.818069 -82.065857 7.431084 18.520337 17.995164 -25.912019 -5.242486 -0.963060 -2.672209 3.310997 15.729489 21.816415 7.040500 -7.125000 0.000000 0.000000 -13.752300 54.921800 -3.398800 5.150187 1.768612 -1.012929 79.474095 -4.476551 8.070550 -16.826512 25.150139 -4.181950 0.397266 -0.093701 7.422823 -14.216882 6.907975 -1.805300 7.125000 0.000000 0.000000 8.900700 -22.833800 4.805600 
-75.377310 105.782754 -89.974662 178.859219 85.073897 178.521242 -4.595950 0.782418 2.388159 -15.624169 -5.915312 -11.656264 1.311240 9.983975 29.856738 2.515725 -17.554648 -2.743186 0.038000 1.258700 3.460900 1.560955 -0.767516 1.163289 20.032641 1.145784 -11.412157 -3.337872 -11.837111 36.299512 -0.219868 -2.058341 -9.496035 -0.165200 -2.618500 7.218300 -3.369050 0.108960 9.367594 1.600636 -0.121097 0.288443 2.904466 -0.096604 -4.908357 -12.537287 -10.067006 -11.264702 8.937156 -12.081583 20.014641 4.825700 -5.448000 14.918500 -6.339078 -0.480172 -1.817730 -81.404858 7.535396 19.616746 18.007278 -25.980842 -5.273473 -0.942617 -2.683506 2.696312 15.718123 21.867477 7.052700 -7.125000 0.000000 0.000000 -13.780900 54.971700 -3.422900 5.149183 1.797142 -1.014382 80.196437 -4.552961 6.550630 -16.901662 25.212424 -4.206233 0.396733 -0.091862 7.971353 -14.305784 6.746636 -1.773200 7.125000 0.000000 0.000000 8.843400 -23.001100 4.739600 
-75.259692 105.835500 -88.461396 170.718680 84.231062 170.564138 -4.577483 0.844234 2.466827 -15.582195 -5.463971 -11.909024 1.157354 9.772483 29.163069 2.483983 -17.878256 -1.933361 0.000400 0.136100 0.373800 1.471242 -0.639993 1.076416 19.401746 -1.026824 -13.884049 -4.067068 -12.629320 39.217535 -0.882612 0.824750 -8.558962 -0.027200 -1.065600 2.929400 -4.848767 -0.051769 9.618710 1.358946 -0.560452 0.206767 3.296837 -0.274562 -5.132697 -12.583832 -10.290809 -10.997072 9.460718 -12.492393 20.043078 5.026100 -5.562800 14.999700 -6.391637 -0.479097 -1.797540 -80.662772 6.953712 19.630355 17.713189 -25.615870 -5.105442 -1.003307 -2.663534 3.126109 15.994648 21.908924 7.201800 -7.125000 0.000000 0.000000 -13.471700 55.060400 -3.373300 5.131493 1.881979 -0.998249 81.527209 -4.319602 4.492589 -16.909270 25.172388 -4.189805 0.425060 -0.120357 7.640591 -15.074462 7.289177 -2.030600 7.125000 0.000000 0.000000 8.236600 -22.390600 4.523800 
-75.201492 105.868236 -87.072414 162.137579 84.271805 162.057264 -4.557683 0.970951 2.575908 -15.658043 -5.451610 -11.594767 0.942846 9.468663 28.163990 2.488537 -17.366520 -2.032904 0.186600 -2.781800 -7.671800 1.372878 -0.511270 0.956310 17.823946 -1.395660 -15.930466 -5.100087 -13.617129 43.015138 -2.322392 7.650041 -7.814345 -0.161900 2.592300 -7.145500 -5.796094 0.098939 9.849560 1.027873 -0.526826 0.158813 3.128614 -0.214225 -5.349273 -12.464237 -10.545037 -10.650746 9.361746 -12.946883 20.200248 4.912500 -5.755600 15.058100 -6.462450 -0.510177 -1.759684 -79.672949 6.302121 19.332969 17.219432 -24.989229 -4.835793 -0.969821 -2.618842 3.879088 15.036762 21.592286 6.655300 -7.125000 0.000000 0.000000 -14.337900 54.517200 -3.405400 5.110176 1.932725 -1.004953 83.045117 -4.399339 2.575142 -17.003464 25.289756 -4.241683 0.364002 -0.094936 7.617679 -13.633046 7.041747 -1.760500 7.125000 0.000000 0.000000 9.343900 -22.713500 5.077200 
